<?xml version="1.0" encoding="utf-8"?>
<!-- Generator: Adobe Illustrator 24.0.2, SVG Export Plug-In . SVG Version: 6.00 Build 0)  -->
<svg version="1.1" id="레이어_1" xmlns="http://www.w3.org/2000/svg" xmlns:xlink="http://www.w3.org/1999/xlink" x="0px"
	 y="0px" viewBox="0 0 32 32" style="enable-background:new 0 0 32 32;" xml:space="preserve">
<style type="text/css">
	.st0{fill:#00484D;}
	.st1{fill:#5F6363;}
	.st2{fill:#3B3E3F;}
	.st3{fill:#5F6363;stroke:#070001;stroke-width:0.25;stroke-miterlimit:10;}
	.st4{fill:#5A5D5E;}
	.st5{fill:#2E3334;}
	.st6{fill:none;stroke:#070001;stroke-width:0.25;stroke-miterlimit:10;}
	.st7{opacity:0.79;fill:#2E3334;enable-background:new    ;}
</style>
<rect class="st0" width="32" height="32"/>
<g>
	<path class="st1" d="M11.1,21.8l0.3,1.3c0,0-2.3,5.3-1.8,6.1c0.4,0.8,5.6,0.8,5.9,0.6s9.2-5.3,6.5-7.7c0,0-1.6-1.4-1.9-1.5
		c0,0-0.2,0.3-0.2-0.3v-0.6c0,0,0.3-0.2,0.2-0.9c-0.2-0.7-7.5,1.9-7.5,1.9L11.1,21.8z"/>
	<path class="st2" d="M13.3,29.8l6.3-10.1l0.3-0.3l0.1-0.5L19.2,19L16,20.3l-4.1,1.6l-0.7,0.2l0.2,1L10,26.7l-0.5,2.2
		c0,0,0.1,0.4,0.4,0.5C10.3,29.5,12.7,29.8,13.3,29.8z"/>
	<path class="st3" d="M21.6,3c0,0-4.1-2.9-7.6,2.3c0,0-1.3,1.1-0.5,3.3c0,0-2.3,4.5-2.8,7.5c0,0,0.2,0.3,0,1c0,0-1.2,3.9-1,4.4
		c0,0-0.2,0.7,0.7,0.7c0,0,3.5,0.4,6.6-1c0,0,3.1-1.4,3.1-2.7c0,0,0.2-2.4,0.2-2.5c0-0.1,0.4-0.1,0.4-0.1s0.8-0.3,0.8-0.6
		c0-0.3,0.5-0.7,0.6-3.4s0.4-7.6,0.2-7.8c-0.2-0.3-1-0.5-0.9-0.7C21.6,3,21.6,3,21.6,3z"/>
	<path class="st4" d="M13.8,8.1c0,0-1,2.1-1.6,2.7s-1,1.1-1.1,1.3c-0.1,0.2-0.7,1.7,0.8,1.7c1.5,0,3.3-0.2,3.5-0.5
		c0.2-0.3,0.3-0.3,0.4-1.2S16,7.3,16,7.3l-0.6-0.8L14.8,7L14,7.8L13.8,8.1L13.8,8.1z"/>
	<path class="st5" d="M12.7,10L14,9.9l1.4-2.5c0,0,0.7-0.7,1.5,0.7l0.2,1.1c0,0,3-0.7,3.3-1.2c0,0,0,0,0,0c0.1-0.5-2.4-2.8-2.9-2.8
		c-0.6,0-3.4,0.6-4.2,1.7c0,0,0,1,0.2,1.6"/>
	<line class="st6" x1="20.5" y1="13.9" x2="21.2" y2="4"/>
	<path class="st6" d="M20,4.5c0,0-0.6-1.1-3.5-0.2l-2.7,1.1"/>
	<path class="st5" d="M21.6,14.9c0,0-1.3-1-1.4-0.5c-0.1,0.5-0.2,2,0,2.6l0.1-0.9l0-0.2l0.2-0.2l0.3-0.1l0.5-0.2l0.2-0.2L21.6,14.9z
		"/>
	<path class="st6" d="M11.9,16.4c0,0-0.3,1.4,2.4,1c0,0,1.4-0.2,1.2-0.7c0,0,0-0.8-1.9-0.6C13.6,16.1,12,16.2,11.9,16.4z"/>
	<path class="st7" d="M11.4,13.7c0,0,3.8,0.3,4.2-0.7c0,0-1.8,2-2.4,2c0,0,1.8,1.3,2.2,1c0,0-4.9,5.3-5.2,5.1c-0.3-0.2-0.2-1-0.2-1
		S11.7,15.7,11.4,13.7z"/>
</g>
</svg>
