<?xml version="1.0" encoding="utf-8"?>
<!-- Generator: Adobe Illustrator 24.0.0, SVG Export Plug-In . SVG Version: 6.00 Build 0)  -->
<svg version="1.1" id="Layer_1" xmlns="http://www.w3.org/2000/svg" xmlns:xlink="http://www.w3.org/1999/xlink" x="0px" y="0px"
	 viewBox="0 0 800 800" style="enable-background:new 0 0 800 800;" xml:space="preserve">
<path d="M447.9,788.6c-10.2-1.8-20.7-6.6-26.7-12c-4.1-4.2-6.3-9.9-6.5-15.8c0-6,3-14.4,7.9-22.7c2.9-4.7,5.2-9.8,6.9-15.1
	c1-3.7,3.2-9.7,4.8-13.5l2.9-7L438,656c0.4-25.8,1.1-49.7,1.8-53.4c1.7-10.7,4.4-21.1,8.1-31.2l2.8-6.7l-4.1-2.4
	c-3.7-2.3-6.7-5.5-18.8-19.8c-14.9-17.5-34.4-27.2-62.1-30.5c-9-0.9-18.2-1.5-27.3-1.9c-40.7-1.9-63.9-10.4-84.9-31
	c-15.6-15.4-23.8-33.3-27.1-59.7c-4.4-35.7-9.4-54-18.5-68.9c-2.3-3.7-4.8-7.1-7.8-10.3l-3.7-3.7l-8.1,5.2
	c-4.4,2.9-10.7,6.6-13.7,8.3c-10.2,5.6-19.8,11.8-29.1,18.5C122.8,385,98,405.7,84.4,419.3c-6.1,6.1-9.3,8.8-10.7,8.5
	c-9.3-1.4-2.2-41.5,13-71.8c19.3-39,51.8-75,89.4-99.2c30.9-20,80.8-47.4,103.9-57.1c41-17.1,94.1-35.7,130.5-45.6
	c7.6-2.2,12.3-4.1,15.5-6.2c7.1-5,14.1-7.4,22.1-7.5c6.7-0.1,7.4-0.2,13.9-4.6c7.6-5,9.9-5.2,17.5-2.5l5,1.8l6.1-4.2l6.1-4.1
	l8.8,0.1c6.7,0.1,9.8-0.1,12.7-1.4c3.7-1.7,3.8-1.9,4.8-8c2.3-13.2,2.5-19.8,1.1-27.8c-1.8-10.5-2-51.4-0.2-59.5
	c1.9-8.6,3.2-10.4,9.7-13.6c9.7-4.7,16.9-6.1,33.5-6.1c20.3,0,30.6,2.8,38.2,10.2c6.9,6.6,8,22.1,4.4,58.4
	c-2.2,21-2.4,26.8-1.8,40.5c0.2,8.8,0.9,17,1.1,18.2c0.5,2.2,1,2.3,8.4,2.4c7.2,0.1,8.5,0.5,15.4,4.1c6.6,3.4,11.6,7.6,12.6,10.7
	c0.1,0.6,1.3,0.6,3.3,0c3.9-1.1,7.4,0.1,10.2,3.6c1.7,2.2,2.7,2.5,6.5,2.5c5.2,0,7.1,1.3,11.4,7.6c2,2.9,4.8,5.1,8,6.5
	c7.1,3.6,16.8,13.5,20.5,21.3c5.7,11.7,6.9,25.3,3.3,37.5c-1.3,4.6-1.3,4.7,1.4,9.1c5.6,9.5,7.6,21.2,5.3,31.1l-1.3,5.9l3.8,3.8
	c18.9,18.9,16.1,49.8-7,77.4c-2.4,2.9-5.3,7.5-6.5,10.3c-4.4,11.8-9.5,20.1-16.1,26.9l-6.7,6.9h-6.9c-6.9,0-16.5-2.3-22.4-5.3
	c-2.4-1.3-2.5-1.3-2,0.2c1.5,5.6,5.3,28.3,6.6,40.9c2,19.3,1.4,47.4-1.3,59.5c-1.9,8.9-5.2,17.5-9.7,25.5c-2.5,4.1-2.7,5-2.2,9.9
	c0.8,7-0.9,18.7-3.7,26.4c-3.4,9-4.7,13.2-5.5,17.8c-0.6,3.9-0.6,3.9,2.2,3.9c3.7,0,5.7,2.2,5.7,6.5c0,1.9-1.7,12.2-3.7,22.7
	c-5.6,29.6-6,32.9-6,61.6c-0.1,29.6-0.1,29.3,6.6,33.8l15.1,9.8c13,8.6,26.9,15.8,41.5,21.3c21.2,8.4,24.1,10.5,24.1,17.7
	c0,3.2-0.6,4.3-3.3,6.9c-8.1,7.9-24.1,9.7-56.4,6.2c-16.8-1.5-33.7-2.4-50.4-2.4c-44.5-0.6-51-2.2-56.8-13.2
	c-3.3-6.3-2.7-14.6,1.9-28.2c2-6,3.8-12.1,5.3-18.3c3-14.7,1-32.3-6.1-52.1l-6.1-16.9c-6-17.1-9.3-48.5-5.7-55.6
	c0.6-1.4,1.8-1.7,4.8-1.5l3.8,0.4l3.2-6.6c2.4-5.2,5.1-8.6,12.3-15.9l9.3-9.3l-0.5-6c-0.4-5.7-7.9-33.4-8.9-33.3
	c-0.4,0-2.4,2.8-4.7,6.3c-5.6,8.4-17.9,21.3-24.9,26.1c-3,2-5.6,4.4-5.6,5.2c-0.1,3.4-3,10.2-6.6,14.9c-3.4,4.6-3.7,5.3-3.2,9.4
	c0.9,6-1,25.1-3.3,35.2c-2,7.4-4.8,14.6-8.4,21.6c-8.8,18.2-15.4,34.4-17,41.9c-1.3,7.2-1.9,14.6-2.3,21.9c-0.4,8.6-1.3,17-1.9,18.8
	c-0.9,2.4-0.9,4.3-0.1,8c0.6,2.7,1,8.6,0.9,13.3c-0.1,6.5,0.4,10.7,2.3,18.3c3.3,13,3.9,21.1,2.4,25.9c-1,3-2,4.2-5.5,5.9
	C481.2,788.4,459.6,790.6,447.9,788.6L447.9,788.6z M478.8,778.2c4.4-1.3,8.3-5.1,8.3-8.5c0-1.5-1.3-6-2.8-9.9
	c-3-7.5-8.3-27.3-8.3-30.6c0-1.7,0.1-1.8,2.7-0.4l2.8,1.5v-3.6c-0.4-3.3-1.1-6.5-2.2-9.7c-2.4-7.2-2.7-7.4-18.1-8.3l-10.4-0.5
	L447,712c-2,2.2-3.9,4.4-5.5,7.1c-1.7,3.3-2.3,8.3-1.3,9.4c0.2,0.4,2.8,0,5.6-0.6c1.7-0.5,3.3-0.8,5.1-0.9c0,0.1-2.8,2.4-6.3,4.8
	c-15.2,11.4-20.6,18.4-20.6,27.3c0,9.3,8.8,16.5,22.5,18.7C455.9,779.2,474.2,779.6,478.8,778.2L478.8,778.2z M685.5,763.1
	c3.8-4.6,3.3-9.3-1.5-14.6c-2.8-2.8-6-5.2-9.5-7.1c-3.6-1.9-7.1-4.1-10.7-6.3c-2.8-2-11.7-7.2-19.8-11.7c-5.9-3.2-11.6-6.5-17.1-10
	l-2.3-1.8v-34.9c0-34.4-0.1-34.9-1.9-34.4c-8.9,2.4-23.6,3.6-42.3,3.2l-20.2-0.2l2.9,7.1c5.5,13.5,8.3,31.5,8.3,52.2
	c0,7.8-0.5,10.5-2.4,16c-1,2.7-1.9,5.3-2.8,8c-0.4,1.1,1,2,6.2,3.6c3.8,1.1,9.4,2.3,12.6,2.7l5.9,0.6l-0.6,5.9
	c-0.6,6.6,0.1,13.6,1.8,15.8c1,1.3,4.8,1.8,22.5,2.5c13.3,0.6,27.8,2,39.2,3.7c9.9,1.5,20.6,2.8,23.8,2.8
	C682.7,766.1,683.2,765.8,685.5,763.1L685.5,763.1z M482.1,703.6c0.5-0.4,1.3-7.2,1.5-15.4c1-22.7,1.9-26.1,13.3-51.7
	c9.4-21,14.4-40.5,14-54.4l-0.2-8.3l-3.6,3.4c-7.4,7.4-2.3-4.2,6.5-14.5c6.6-7.9,8.9-12.2,9.9-19.2c0.5-2.8,1.5-4.2,5.9-7.5
	c16.4-12.4,28.2-28.2,36-47.5c1.8-4.6,6.3-20.2,10.2-34.7c7.1-26.8,10.9-38.4,14.4-43.3c1.3-1.9,1.8-2.3,1.5-1
	c-2,7.6-2.7,10.8-4.3,20.7c-1,6.2-2.9,18.4-4.2,26.9c-2.4,17.4-5,28.6-8.4,37.2l-2.3,5.9l6.1,15.8c6.3,16.1,9.3,27.8,9.8,39.1
	l0.4,6.3l-5,1c-6.6,1.1-12.3,4.8-16.3,10.2c-4.3,6.2-6.7,11.3-5.6,12.4c0.5,0.5,6.7,1.7,13.9,2.5c11,1.3,15.2,1.3,29.9,0.4
	c6.3-0.2,12.6-0.9,18.8-1.8c1.4-0.5,2.8-3.3,5.1-10.5c5.2-16.6,6.2-22.5,5.6-34.2l-0.5-10.3l2.7-3.4c6.2-7.9,11-22.1,13.1-38.8
	c2.4-20.3-2-62.9-10.3-99.5c-3.9-17.4-5.6-27.8-5.6-35.4v-6.7l-6.2,0.6c-22.4,2.4-49.4,1.8-65.9-1.7c-9-1.8-31.8-8.5-36.7-10.7
	l-3.9-1.8l-0.5,4.4c-0.4,2.4-0.8,4.8-1.3,7.4c-0.8,2.7-0.5,3.3,4.2,7.9c5.9,6,7.6,9,7.6,13.1c0,2.5-1.4,4.6-8.5,12
	c-5.2,5.5-11.8,11.3-16.9,14.6l-8.3,5.6l-3.6,12.3c-12.7,45.1-15.1,86.1-6.7,115.5l2,7.4l-4.1,5.1c-15.2,19.2-24.3,33.8-25.7,41.9
	c-0.2,1.7-1.5,7-2.8,12c-3.3,12.6-5.9,31-7,51c-0.8,16.6-1.9,33.4-3.3,50.1l-0.6,5l6.3,1.9c3.6,1.1,8.9,2.4,12,2.9
	c5.7,0.9,16.3,0.6,17.9-0.2L482.1,703.6z M605.4,633.8c9.9-0.6,18.9-2.2,20.7-3.7c0.8-0.5,1.7-3.2,1.9-5.9l0.6-4.8l-7.9,1.8
	c-6.2,1.3-12.4,2-18.7,2.5c-15,0.6-30.1,0.2-45-1.3c-5-0.8-5-0.8-3.4,5.7c1.3,4.8,1.5,5.1,14.5,6
	C576.8,634.9,588.9,634.8,605.4,633.8L605.4,633.8z M597.2,611.7c13-1.1,29.1-3.9,32.3-5.6c1-0.5,1.9-2.4,2.3-4.6l1.1-6.7l0.6-3.2
	l-3.2,0.6c-14.1,2.9-24.8,3.8-46.1,3.8c-20.8,0-23.2-0.1-28.7-2c-2-0.9-4.3-1.4-6.6-1.5c-0.9,0.5-1,7.8-0.2,12.8
	c0.5,3,1,3.6,4.1,4.4c9.7,2.7,25.9,3.3,44.5,1.8L597.2,611.7z M361.4,497.1c32.5-9.4,75.1-37,109.9-71.5
	c11.3-11.3,12.7-12.8,14.2-17.9l2-6.5c0.2-0.5-1.8-1.4-4.4-2c-7-1.7-12.3-5.7-12.3-9.4c0-2.2-1.3-4.3-5-8.3c-6-6.7-7.5-9.7-8.1-16.1
	l-0.5-5.2l-7.1-5.1c-4.1-2.9-18.3-10.8-33.4-18.4c-11.4-5.6-22.7-11.7-33.8-18.3c-12.7-8.5-21.2-18.7-26.1-30.7
	c-0.9-2.4-2-4.4-2.4-4.4c-1,0-29.6,27.6-41.8,40.5c-30.1,31.8-50.8,59.3-63.9,84.9c-3.3,6.3-6.9,13.9-7.9,16.6l-1.9,5.1l2.3,8.5
	c1.4,4.6,4.3,12.1,6.6,16.5c8,15.8,17.5,25.3,33.3,33c16.9,8.4,31.9,11.3,56.9,10.9c13.5-0.1,17.4-0.5,23.4-2.3L361.4,497.1z
	 M104.7,385.6c21.3-18.9,50.8-39.6,86.9-61.1c23.6-14.1,115-59.8,157-78.5c7.6-3.4,14.5-6.6,15.2-7c0.8-0.5,2.9-6,5-12.1
	c8.9-28.2,13.3-33.8,29.5-37.5c2-0.5,2.5-1.1,2.5-3.2c0-3.7,2.5-12.2,4.7-16c1.7-2.9,1.7-3,0.2-2.7c-0.9,0.2-6.2,1.8-11.8,3.4
	c-77.5,22.4-145.2,52.1-203.7,89.2C128,299.9,92.1,347.4,81.6,404.3l-0.8,4.2l7.6-7.5c4.1-4.2,11.4-11.1,16.3-15.2L104.7,385.6z
	 M679.6,396.4c6.2-3.2,15.9-17.8,19.4-29.3c1-4.1,3-7.9,6-11.1c9.4-10.4,17.1-29.3,17.3-42.3c0-20.2-11.4-28-28.1-19.3
	c-2.2,1-3.9,1.8-4.2,1.5c-0.9-0.9,3.8-5.5,9.5-9c7.5-5,8.9-7.9,8.9-18.4c0-8.9-2.2-16-7.2-23.9c-2.3-3.4-3.2-5.7-2.8-7.1l2.3-8.5
	c3.2-11.3,2-24.3-2.9-32.5c-7.4-12.4-16.4-18.5-29-19.6l-7.4-0.5l4.3,4.8c12.8,13.9,19.1,31.2,16.5,46.1c-1.3,7.6-2.4,9.1-9.8,12.1
	l-4.3,1.8l0.5,5.9c0.9,9.5-0.8,16.5-6.9,29.3c-3,6.5-5.3,12.3-5.1,13c0.8,2.2,9.1,6.2,15.8,7.9l6.5,1.5l-4.1,1.4
	c-5.3,1.7-6.5,4.1-6.5,12.8c0,8,1.1,11.3,7,20.1c2.7,3.8,4.4,7.8,4.7,10c0.5,3.6,0.4,3.8-2.5,4.8c-3.3,0.9-6.7,1.5-10.2,1.7
	c-12,0.8-12.8,1.1-18.2,6.2c-4.8,4.6-5,4.8-5,9.9c0,7,2.7,21.1,4.3,23c2.2,2.3,14.2,8.3,18.9,9.1C671.6,398.9,676,398.4,679.6,396.4
	L679.6,396.4z M503.7,386.9c7.8-6.1,13.9-12.2,17.3-17.4c2.2-3.2,2.3-3.8,1.3-6.5c-1.8-4.1-13.5-14.6-20-17.8
	c-4.3-1.9-8.9-3.3-13.6-3.9l-8-1l-5-6.2c-10.3-12.7-16-22.6-24.1-41.8c-7.1-16.3-13.3-25.8-23.2-35.2c-4.1-3.8-7-7-6.7-7
	c0.5,0,5.3,2.4,10.9,5.3c9.3,5,10.4,5.3,14.6,4.7c15.1-1.8,28.5-19.2,33.3-43.6c1.4-6.9,4.2-13.9,7.1-18.1c0.1-0.1,6,3.7,12.8,8.6
	c17.4,12.3,21.2,14.2,31.1,14.6c6.5,0.2,10.2-0.2,21.9-3c24.9-6.1,51.8-8.5,68.2-6.3c9.3,1.3,22.6,5.3,32.5,10
	c9.8,4.6,11.7,4.8,14.9,2c2.7-2.3,2.7-2.7,2.7-11.2c-0.1-12.6-4.7-26.2-11.7-34.3c-3.6-4.2-13.6-11.1-23.5-16.3
	c-3.6-1.9-7.1-3.8-10.5-5.7c-4.7-2.8-10-2.4-24.5,1.4c-16.8,4.3-21.2,4.3-40.4-0.6c-16.3-4.1-17.3-4.2-33.3-1.7
	c-8.5,1.3-29.9,0.5-37-1.4c-3.6-1-7.1-2-10.5-3.3c-6.2-2.4-17-2.8-26.8-1c-19.4,3.4-34.2,14-39.5,28.3c-2.8,7.2-2.4,10.7,1.3,13
	c5.9,3.7,13.6,13.7,13.6,17.7c0,0.2-1.9-1.4-4.1-3.7c-5.5-5.7-10.4-8.3-16.3-8.3c-7.8,0.2-14.7,4.8-17.9,11.8
	c-1.7,4.4-3.2,9-4.3,13.7c-3.6,13-6.7,19.8-13.5,29c-6,8.3-6.9,12-4.7,21.2c5.3,23.4,14.6,32.8,53.3,54.8
	c20.3,11.6,30.7,18.1,38.4,23.8c5.9,4.3,6,4.6,5.5,7.9c-1.1,7.6,3.7,15.9,13.2,22.6c2.4,1.7,3.9,3.4,3.9,4.7c0,2.3,6.5,5.5,11.2,5.5
	C496.1,392.3,498.2,391.1,503.7,386.9L503.7,386.9z M660.3,344.1c14.7,0.5,15.5-0.6,7.6-9.8c-8.3-9.5-10.5-17.3-7.5-25.8l1.3-3.3
	l-5.2-2.5c-1.8-0.9-3.6-1.8-5.3-2.4c-0.9,3.4-1.8,6.7-2.5,10.2c-1.9,7.8-4.2,27.8-4.3,36.3c0,0.8,1.3,0.5,3.4-0.9
	C650.8,344.1,652.3,343.9,660.3,344.1L660.3,344.1z M610.9,343.3c8.9-0.5,18.1-1.1,20.5-1.5l4.4-0.6l0.5-14.6
	c0.8-20.8,3.8-33.2,12.8-52.9c6.3-14,9.1-26.2,7.8-35.3c-0.5-3.9-0.8-4.2-6.1-6.5c-9.8-3.9-20-6.6-30.4-8.3
	c-10-1.4-39.5-0.6-50.6,1.5c-4.6,0.8-13,2.5-18.5,3.9c-13.9,3.2-21.2,2.8-31.8-1.8c-10.4-4.6-17-8.8-23.2-14.6
	c-5-4.6-5.5-4.8-6.7-3.3c-1,1.1-1.5,4.6-1.9,12c-0.4,11.3-2.2,17.3-7.1,25.3c-1.1,1.7-2,3.4-2.8,5.2c0,0.4,3.8,4.8,8.5,9.7
	c16.3,16.9,24.3,21.2,37.1,20.3c4.2-0.4,7.1-0.2,7.1,0.2c0,1-8.3,7.5-11.7,9.3c-1.7,0.9-2,1.8-1.8,3.7l2,13.3
	c1.1,7.6,2,11.2,3.2,12.2c3,2.5,18.8,10.7,28.7,14.7c13,5.2,20.1,7.1,30,8C593.1,344.3,593.4,344.3,610.9,343.3L610.9,343.3z
	 M505.8,329.4c0.2-0.4-0.6-7.8-2.3-16.3c-2-11.6-3.2-15.8-4.4-16.9c-0.9-0.8-5.6-4.1-10.3-7.5c-6.2-4.4-12.1-9.4-17.5-14.6l-8.8-8.6
	l-4.7,2.4l-5,2.7c0.4,2,1.1,3.9,2,5.7c1.4,3,4.2,10.5,6.2,16.6c5.3,15.9,9.5,23.5,20.1,37.3l3.9,5.2l7.5,1.1
	c4.2,0.6,8.4,1.5,9.5,1.9c1.8,0.8,2,0.4,2.5-3.7C504.9,333,505.3,331.1,505.8,329.4L505.8,329.4z M666.8,171.3
	c6.5-0.6,7.6-1.5,4.8-4.4c-1.8-1.8-5.9-1.9-9.1-0.4c-2.2,1-2.7,0.8-6.1-2.9c-3.6-3.9-3.8-4.1-8.3-3.6c-4.1,0.5-4.7,0.4-5.2-1.3
	c-1.7-2.8-3.6-5.2-5.9-7.4c-2.9-3.3-6.5-5.9-10.5-7.5c-7.9-3-12.3-2.7-19.8,1.5c-21.7,11.8-20.8,11.7-41.8,6.3
	c-19.6-5-34.2-10-38.9-13.2c-3.9-2.7-12.3-5.6-19.3-6.5c-5.2-0.8-8.5,0.4-13.5,4.4l-2.7,2.2l2.4,4.2c3.3,5.9,2.9,6.2-2,1.9
	c-5.3-4.4-11.7-7.5-15.8-7.6c-2.9,0-11.6,3.8-12.6,5.5c-0.4,0.5,2.3,1.1,5.9,1.4c3.7,0.4,8.8,1.7,12.2,3c8.9,3.8,13.5,5.1,21.6,5.9
	c8.9,0.9,25-0.1,26.9-1.7c1-0.9,3.8-1,9.7-0.5c7.8,0.5,10.9,1.3,29.3,6.2c10.7,2.9,18.2,2.7,30.9-0.8c5.9-1.7,13.2-3.3,16.3-3.7
	c5.2-0.5,6.2-0.2,14.4,3.4c13,5.9,19.8,9.5,23.6,13C657.1,172.2,657.6,172.2,666.8,171.3L666.8,171.3z M594.4,149.1l7.8-4.1
	l-0.2-7.9c-0.1-5.5-0.4-10.8-0.6-16.1l-0.6-8.1l-7.8,6c-4.6,3.6-9,6.2-10.9,6.6c-5.6,1-33.2,0-35.7-1.4c-3.4-2.5-6.6-5.3-9.5-8.4
	l-7.1-7.2l-0.1,4.3c0,2.3-0.2,6.2-0.8,8.6c-0.6,4.6-0.6,4.7,4.3,10.9c2.7,3.4,4.8,6.5,4.8,6.9c0,2.4,36.7,13.9,45,14
	C585.5,153.2,588.8,152,594.4,149.1L594.4,149.1z M579.5,120.3c9.2-1.8,13.6-8.4,17.1-25.1c3.6-18,5.5-46.4,3.8-58.4
	c-1.5-10.9-13.7-15.8-36.9-15.1c-14.5,0.5-20.5,1.8-25.4,6c-3.1,2.5-3.1,2.8-4.5,14.8c-2.6,23.1,1.1,56,7.7,68.4
	c3.2,6,6,8.1,11.8,9.2C559.7,121.2,573.8,121.3,579.5,120.3L579.5,120.3z"/>
</svg>
