<?xml version="1.0" encoding="utf-8"?>
<!-- Generator: Adobe Illustrator 24.0.2, SVG Export Plug-In . SVG Version: 6.00 Build 0)  -->
<svg version="1.1" id="레이어_1" xmlns="http://www.w3.org/2000/svg" xmlns:xlink="http://www.w3.org/1999/xlink" x="0px"
	 y="0px" viewBox="0 0 59 75" style="enable-background:new 0 0 59 75;" xml:space="preserve">
<style type="text/css">
	.st0{fill:#5F6363;}
	.st1{fill:#3B3E3F;}
	.st2{fill:#5F6363;stroke:#040000;stroke-width:0.25;stroke-miterlimit:10;}
	.st3{fill:#5A5D5E;}
	.st4{fill:#2F3334;}
	.st5{fill:none;stroke:#040000;stroke-width:0.25;stroke-miterlimit:10;}
	.st6{opacity:0.79;fill:#2F3334;enable-background:new    ;}
</style>
<g>
	<path class="st0" d="M17.2,52l0.7,3.2c0,0-5.7,13.3-4.6,15.3s14.1,1.9,14.8,1.4s23.1-13.4,16.2-19.3c0,0-4-3.6-4.8-3.8
		c0,0-0.5,0.7-0.6-0.7v-1.6c0,0,0.8-0.5,0.4-2.3c-0.5-1.8-18.8,4.7-18.8,4.7L17.2,52z"/>
	<path class="st1" d="M22.8,72.2l15.8-25.3l0.7-0.8l0.2-1.3l-2,0.3l-8,3.3l-10.3,3.9l-1.8,0.5l0.6,2.4l-3.5,9.3l-1.3,5.4
		c0,0,0.2,1,1,1.2C15.1,71.4,21.2,72.2,22.8,72.2z"/>
	<path class="st2" d="M43.6,4.9c0,0-10.4-7.3-19,5.8c0,0-3.3,2.8-1.3,8.2c0,0-5.7,11.3-7,18.7c0,0,0.4,0.8,0,2.5c0,0-3,9.9-2.5,11.1
		c0,0-0.6,1.8,1.7,1.8c0,0,8.7,1.1,16.5-2.6c0,0,7.8-3.4,7.9-6.9c0,0,0.5-6.1,0.6-6.3c0.1-0.3,1-0.3,1-0.3s1.9-0.8,2-1.5
		s1.2-1.7,1.6-8.5s1.1-19,0.5-19.7S43.2,6,43.4,5.4C43.6,4.9,43.6,4.9,43.6,4.9z"/>
	<path class="st3" d="M24,17.6c0,0-2.6,5.3-4,6.8s-2.6,2.7-2.8,3.3c-0.2,0.6-1.7,4.3,2.1,4.2s8.3-0.6,8.7-1.3s0.8-0.8,0.9-2.9
		s0.5-11.9,0.5-11.9l-1.5-2.1L26.6,15l-2.1,1.9l-0.3,0.8L24,17.6z"/>
	<path class="st4" d="M21.2,22.6l3.4-0.3l3.5-6.2c0,0,1.7-1.7,3.8,1.7l0.4,2.7c0,0,7.6-1.8,8.4-3c0,0,0-0.1,0.1-0.1
		c0.3-1.2-6-7.1-7.4-7.1s-8.5,1.4-10.6,4.2c0,0-0.1,2.6,0.5,4"/>
	<line class="st5" x1="40.7" y1="32.2" x2="42.5" y2="7.3"/>
	<path class="st5" d="M39.6,8.6c0,0-1.6-2.7-8.7-0.4L24.2,11"/>
	<path class="st4" d="M43.6,34.7c0,0-3.3-2.4-3.5-1.2c-0.3,1.2-0.4,4.9,0,6.5l0.3-2.3l0.1-0.6l0.5-0.4l0.8-0.2l1.2-0.6l0.5-0.4
		L43.6,34.7z"/>
	<path class="st5" d="M19.2,38.6c0,0-0.7,3.6,6,2.5c0,0,3.6-0.6,2.9-1.8c0,0,0-2-4.7-1.5C23.4,37.8,19.5,38,19.2,38.6z"/>
	<path class="st6" d="M17.9,31.7c0,0,9.5,0.8,10.6-1.8c0,0-4.5,5-6.1,5.1c0,0,4.5,3.2,5.4,2.6c0,0-12.4,13.2-13.1,12.7
		c-0.8-0.5-0.4-2.4-0.4-2.4S18.7,36.7,17.9,31.7z"/>
</g>
</svg>
