<?xml version="1.0" encoding="utf-8"?>
<!-- Generator: Adobe Illustrator 24.0.2, SVG Export Plug-In . SVG Version: 6.00 Build 0)  -->
<svg version="1.1" id="레이어_1" xmlns="http://www.w3.org/2000/svg" xmlns:xlink="http://www.w3.org/1999/xlink" x="0px"
	 y="0px" viewBox="0 0 75 75" style="enable-background:new 0 0 75 75;" xml:space="preserve">
<style type="text/css">
	.st0{fill:#5F6363;}
	.st1{fill:#3B3E3F;}
	.st2{fill:#5F6363;stroke:#040000;stroke-width:0.25;stroke-miterlimit:10;}
	.st3{fill:#5A5D5E;}
	.st4{fill:#2F3334;}
	.st5{fill:none;stroke:#040000;stroke-width:0.25;stroke-miterlimit:10;}
	.st6{opacity:0.79;fill:#2F3334;}
</style>
<g>
	<path class="st0" d="M26,51.1l0.7,3.2c0,0-5.7,13.3-4.6,15.3c1.1,2,14.1,1.9,14.8,1.4c0.7-0.5,23.1-13.4,16.2-19.3
		c0,0-4-3.6-4.8-3.8c0,0-0.5,0.7-0.6-0.7l0-1.6c0,0,0.8-0.5,0.4-2.3c-0.5-1.8-18.8,4.7-18.8,4.7L26,51.1z"/>
	<path class="st1" d="M31.6,71.3L47.4,46l0.7-0.8l0.2-1.3l-2,0.3l-8,3.3L28,51.4l-1.8,0.5l0.6,2.4l-3.5,9.3L22,69c0,0,0.2,1,1,1.2
		C23.9,70.5,30,71.3,31.6,71.3z"/>
	<path class="st2" d="M52.4,4c0,0-10.4-7.3-19,5.8c0,0-3.3,2.8-1.3,8.2c0,0-5.7,11.3-7,18.7c0,0,0.4,0.8,0,2.5c0,0-3,9.9-2.5,11.1
		c0,0-0.6,1.8,1.7,1.8c0,0,8.7,1.1,16.5-2.6c0,0,7.8-3.4,7.9-6.9c0,0,0.5-6.1,0.6-6.3c0.1-0.3,1-0.3,1-0.3s1.9-0.8,2-1.5
		c0.1-0.7,1.2-1.7,1.6-8.5S55,7,54.4,6.3S52,5.1,52.2,4.5C52.4,4,52.4,4,52.4,4z"/>
	<path class="st3" d="M32.8,16.7c0,0-2.6,5.3-4,6.8c-1.4,1.5-2.6,2.7-2.8,3.3c-0.2,0.6-1.7,4.3,2.1,4.2s8.3-0.6,8.7-1.3
		s0.8-0.8,0.9-2.9s0.5-11.9,0.5-11.9l-1.5-2.1l-1.3,1.3l-2.1,1.9L33,16.8L32.8,16.7z"/>
	<path class="st4" d="M30,21.7l3.4-0.3l3.5-6.2c0,0,1.7-1.7,3.8,1.7l0.4,2.7c0,0,7.6-1.8,8.4-3c0,0,0-0.1,0.1-0.1
		c0.3-1.2-6-7.1-7.4-7.1s-8.5,1.4-10.6,4.2c0,0-0.1,2.6,0.5,4"/>
	<line class="st5" x1="49.5" y1="31.3" x2="51.3" y2="6.4"/>
	<path class="st5" d="M48.4,7.7c0,0-1.6-2.7-8.7-0.4L33,10.1"/>
	<path class="st4" d="M52.4,33.8c0,0-3.3-2.4-3.5-1.2c-0.3,1.2-0.4,4.9,0,6.5l0.3-2.3l0.1-0.6l0.5-0.4l0.8-0.2l1.2-0.6l0.5-0.4
		L52.4,33.8z"/>
	<path class="st5" d="M28,37.7c0,0-0.7,3.6,6,2.5c0,0,3.6-0.6,2.9-1.8c0,0,0-2-4.7-1.5C32.2,36.9,28.3,37.1,28,37.7z"/>
	<path class="st6" d="M26.7,30.8c0,0,9.5,0.8,10.6-1.8c0,0-4.5,5-6.1,5.1c0,0,4.5,3.2,5.4,2.6c0,0-12.4,13.2-13.1,12.7
		c-0.8-0.5-0.4-2.4-0.4-2.4S27.5,35.8,26.7,30.8z"/>
</g>
</svg>
