<?xml version="1.0" encoding="utf-8"?>
<!-- Generator: Adobe Illustrator 24.0.2, SVG Export Plug-In . SVG Version: 6.00 Build 0)  -->
<svg version="1.1" id="레이어_1" xmlns="http://www.w3.org/2000/svg" xmlns:xlink="http://www.w3.org/1999/xlink" x="0px"
	 y="0px" viewBox="0 0 75 75" style="enable-background:new 0 0 75 75;" xml:space="preserve">
<style type="text/css">
	.st0{fill:#040000;}
</style>
<path class="st0" d="M40.3,14.7c-0.5-1.1-1.6-1.7-2.8-1.7c-1.2,0-2.2,0.7-2.8,1.7l-6.2,12.7l-13.8,2c-1.2,0.2-2.1,1-2.5,2.1
	c-0.4,1.1-0.1,2.3,0.8,3.1l10,9.9l-2.4,14c-0.2,1.2,0.3,2.3,1.2,3c1,0.7,2.2,0.8,3.2,0.2l12.3-6.6l12.3,6.6c1,0.5,2.3,0.5,3.2-0.2
	s1.4-1.9,1.2-3l-2.4-14l10-9.9c0.8-0.8,1.1-2,0.8-3.1c-0.4-1.1-1.3-1.9-2.5-2.1l-13.8-2L40.3,14.7z"/>
<polygon class="st0" points="52.3,12.3 56.9,10.9 52.3,9.9 51.2,5.2 49.7,9.8 45,10.9 49.7,12.4 51.2,17.1 "/>
<polygon class="st0" points="64.9,21.4 69.5,20 64.9,18.9 63.8,14.2 62.4,18.8 57.7,20 62.4,21.4 63.8,26.1 "/>
</svg>
